<?xml version="1.0" encoding="UTF-8"?>
<svg id="Layer_2" data-name="Layer 2" xmlns="http://www.w3.org/2000/svg" viewBox="0 0 1199.71 492.17">
  <defs>
    <style>
      .cls-1 {
        fill: #fff;
      }
    </style>
  </defs>
  <g id="Layer_1-2" data-name="Layer 1">
    <path class="cls-1" d="M183.71.55c8.92.72,19.45,3.14,28.21,5.29,49.77,12.22,95.98,48.49,112.78,97.6-17.62-21.4-41.04-34.95-67.99-41.46-57.18-13.81-117.06,1.02-151.82,50.13-58.68,82.91,26.35,139.13,70.23,200.18,17.75,28.39-22.11,63.46-48.33,43.28C70.68,281.31-34.55,202.26,11.25,96.47,34.47,42.82,92.91,5.32,150.71.55c8.94-.74,24.05-.72,33,0Z"/>
    <path class="cls-1" d="M1166.71,160.37h-50c-1.94-51.3-63.1-62.41-103.22-49.66-36.38,11.56-42.56,50.91-8.8,70.16,51.75,29.5,158.12,18.43,173.55,94.34,21.09,103.78-89.58,138.14-171.55,118.42-51.98-12.51-81.8-51-82.99-104.4h50c.78,33.11,21.83,52.85,52.99,59.44,33.32,7.05,97.42,4.01,100.99-40.98,2.45-30.79-20.78-43.33-46.22-51.69-50.2-16.5-136.01-18.95-149.3-83.61-20.62-100.31,95.96-131.45,171.8-104.68,41.47,14.64,61.75,49.61,62.74,92.66Z"/>
    <path class="cls-1" d="M620.71,160.37h-50c-1.9-52.17-65.35-62.8-105.54-48.99-35.35,12.15-39.17,50.77-6.48,69.48,54.38,31.13,166.72,17.51,175.06,103.83,8.5,88.06-71.35,120.11-146.53,113.4-64.19-5.73-107.96-41.85-109.51-108.87h50c-.24,30.99,19.69,51.52,48.79,58.64,31.46,7.7,94.88,6.2,103.76-33.61,12.71-56.95-68.04-63.11-105.77-73.26-53.71-14.44-99.31-39.18-89.51-103.83,11.17-73.66,101.64-88.18,162.16-72.62,48.08,12.36,71.26,47.18,73.57,95.82Z"/>
    <path class="cls-1" d="M179.47,129.66c7.26-.89,14.02,1.68,20.18,5.3,31.26,40.4,72.64,79.85,100.48,122.39,43.78,66.9,37.26,139.92-23.4,193.21-84.36,74.12-232.12,46.44-272.99-60.96.93-.69,2.39,1.34,3,1.98,61.16,64.61,178.45,59.04,223.78-21.14s-34.71-130.75-75.22-187.18c-7.08-9.86-9.7-17.38-5.62-29.42s16.8-22.57,29.8-24.17Z"/>
    <path class="cls-1" d="M1196.55,374.8c-13.35-20.28-44.15-4.75-34.87,17.85,7.42,18.07,34.78,13.48,38.04-5.53v-4l-3.17-8.32ZM1167.72,394.6c-6.18-8.33-3.06-22.99,7.72-25.23,8.33-1.73,15.78,1.72,18.74,9.78,6.31,17.18-16.28,29.17-26.46,15.45Z"/>
    <path class="cls-1" d="M895.37,327.73c-4.59-60.81,3.32-127.4.09-188.88-3.59-68.28-53.62-85.43-114.38-84.98-53.46.4-105.8,19.03-122.16,74.54-3.31,11.23-4.23,22.38-5.5,33.96h50c1.25-50.9,41.34-63.54,85.55-60.98,37.16,2.15,61.6,21.58,56.37,61.39-4.21,32.03-66.15,33.36-90.94,38.02-67.7,12.72-117.88,32.91-111.96,112.88,5.64,76.23,90.03,94.38,150.97,70.92,21.8-8.39,39.62-23.29,55.01-40.44-.64,17.59,5.02,37.37,21.97,45.49,12.19,5.84,32.74,4.78,45.31.24,1.72-.62,10.73-4.9,10.73-6.27v-39.46c-18.13,3.24-29.38,5.61-31.04-16.44ZM845.4,278.75c0,12.23-12.8,33.92-21.51,42.45-34.47,33.75-131,41.23-129.54-24.52,1.51-68.27,94.23-53.07,138.03-70.89,4.49-1.83,8.5-4.76,13.02-6.48v59.43Z"/>
    <path class="cls-1" d="M352.49,365.38c-24.35,2.67-22.33,40.18,3.68,38.74,25.69-1.42,22.38-41.59-3.68-38.74ZM354.37,400.73c-18.48-.37-19.55-28.11-3.93-31.36,24.47-5.08,25.86,31.79,3.93,31.36Z"/>
    <path class="cls-1" d="M1183.73,386.69c.36-1.55,4.86-1.55,5.09-6.07.45-8.84-10.22-6.21-16.1-6.49v21.98h3c.9-.85-2.65-14.94,4.49-8.98,1.32,1.1,5.44,11.82,8.51,8.97,1.37-1.27-5.32-7.96-4.98-9.42ZM1175.71,383.13v-7c11.87-.33,12.96,8.73,0,7Z"/>
    <path class="cls-1" d="M358.75,385.16c.65-.69,5.94.16,4.81-6.3-1.26-7.17-10.68-4.2-15.84-4.74v21.98h3c.46-4.02-2.15-13.08,3.99-9.48,2.78,1.63,3.94,11.33,9.02,8.97-.39-2.2-6.67-8.61-4.98-10.43ZM350.71,383.13v-7c11.72-.75,13.03,8.89,0,7Z"/>
  </g>
</svg>